<svg xmlns="http://www.w3.org/2000/svg" xml:space="preserve" id="Layer_1" x="0" y="0" style="enable-background:new 0 0 30 30" version="1.1" viewBox="0 0 30 30"><style>.st0{fill:#00e676bf}</style><path d="M17.2 30c-.8 0-1.5-.3-2.1-.9L.9 15c-.6-.6-.9-1.5-.9-2.4L.9 1.9c0-.6.5-1 1.1-1.1L12.6 0c.9-.1 1.7.2 2.4.9L29.1 15c1.2 1.2 1.2 3.1 0 4.3l-9.8 9.8c-.6.6-1.4.9-2.1.9zM3.1 3.1l-.8 9.7c0 .2.1.4.2.5l14.2 14.2c.3.3.7.3.9 0l9.8-9.8c.3-.3.3-.7 0-.9L13.3 2.5c-.1-.1-.3-.2-.5-.2l-9.7.8z" class="st0"/><path d="M8.5 11.9C6.6 11.9 5 10.4 5 8.5S6.6 5 8.5 5s3.4 1.5 3.4 3.4-1.5 3.5-3.4 3.5zm0-4.5c-.6 0-1.1.5-1.1 1.1 0 .6.5 1.1 1.1 1.1.6 0 1.1-.5 1.1-1.1 0-.6-.5-1.1-1.1-1.1z" class="st0"/></svg>