<svg xmlns="http://www.w3.org/2000/svg" xml:space="preserve" id="Layer_1" x="0" y="0" style="enable-background:new 0 0 30 30" version="1.1" viewBox="0 0 30 30"><style>.st0{fill:#00e676bf}</style><path d="M23.6.5H4.4c-.6 0-1 .4-1 1v24.7c0 .6.4 1 1 1h2.1v1.3c0 .6.4 1 1 1s1-.4 1-1v-1.3h15.2c1.7 0 3-1.3 3-3V3.5c-.1-1.6-1.4-3-3.1-3zm-18.2 2h14.9v22.7H5.4V2.5zm19.2 21.7c0 .6-.4 1-1 1h-1.4V2.5h1.4c.6 0 1 .4 1 1v20.7z" class="st0"/><path d="M8.3 19.7c.6 0 1-.4 1-1 0-2 1.6-3.6 3.6-3.6s3.6 1.6 3.6 3.6c0 .6.4 1 1 1s1-.4 1-1c0-2.1-1.2-3.9-2.9-4.9.5-.6.8-1.4.8-2.2 0-1.9-1.6-3.5-3.5-3.5s-3.5 1.6-3.5 3.5c0 .9.3 1.6.8 2.2-1.7 1-2.9 2.8-2.9 4.9 0 .5.4 1 1 1zm3-8.1c0-.8.7-1.5 1.5-1.5s1.5.7 1.5 1.5-.7 1.5-1.5 1.5-1.5-.7-1.5-1.5z" class="st0"/></svg>